<?xml version="1.0" encoding="UTF-8" standalone="no"?>
<svg
   xmlns:dc="http://purl.org/dc/elements/1.1/"
   xmlns:cc="http://creativecommons.org/ns#"
   xmlns:rdf="http://www.w3.org/1999/02/22-rdf-syntax-ns#"
   xmlns:svg="http://www.w3.org/2000/svg"
   xmlns="http://www.w3.org/2000/svg"
   xmlns:sodipodi="http://sodipodi.sourceforge.net/DTD/sodipodi-0.dtd"
   xmlns:inkscape="http://www.inkscape.org/namespaces/inkscape"
   width="105.85954mm"
   height="23.8125mm"
   viewBox="0 0 105.85954 23.8125"
   version="1.1"
   id="svg8"
   inkscape:version="1.0.2-2 (e86c870879, 2021-01-15)"
   sodipodi:docname="ue_pl_c6.svg">
  <defs
     id="defs2">
    <clipPath
       clipPathUnits="userSpaceOnUse"
       id="clipPath899">
      <path
         d="M 0,158.733 H 393.117 V 0 H 0 Z"
         id="path897" />
    </clipPath>
  </defs>
  <sodipodi:namedview
     id="base"
     pagecolor="#ffffff"
     bordercolor="#666666"
     borderopacity="1.0"
     inkscape:pageopacity="0.0"
     inkscape:pageshadow="2"
     inkscape:zoom="1.4"
     inkscape:cx="87.326723"
     inkscape:cy="-8.250958"
     inkscape:document-units="mm"
     inkscape:current-layer="g1114"
     inkscape:document-rotation="0"
     showgrid="false"
     fit-margin-top="0"
     fit-margin-left="0"
     fit-margin-right="0"
     fit-margin-bottom="0"
     inkscape:window-width="3840"
     inkscape:window-height="2066"
     inkscape:window-x="-11"
     inkscape:window-y="-11"
     inkscape:window-maximized="1" />
  <metadata
     id="metadata5">
    <rdf:RDF>
      <cc:Work
         rdf:about="">
        <dc:format>image/svg+xml</dc:format>
        <dc:type
           rdf:resource="http://purl.org/dc/dcmitype/StillImage" />
        <dc:title></dc:title>
      </cc:Work>
    </rdf:RDF>
  </metadata>
  <g
     inkscape:label="Warstwa 1"
     inkscape:groupmode="layer"
     id="layer1"
     transform="translate(-52.491745,-53.01305)">
    <g
       id="g841"
       inkscape:label="logo_UE"
       transform="matrix(0.35277777,0,0,-0.35277777,36.491864,93.010642)">
      <g
         id="g1114"
         transform="matrix(0.99228227,0,0,0.99228227,0.35002568,0.87503075)">
        <path
           d="M 147.39,45.354 H 45.354 v 68.025 H 147.39 Z"
           style="fill:#254aa5;fill-opacity:1;fill-rule:nonzero;stroke:none"
           id="path843" />
        <g
           id="g845"
           transform="translate(94.1978,98.5524)">
          <path
             d="M 0,0 2.158,1.573 4.309,0 3.487,2.541 5.676,4.112 H 2.98 L 2.158,6.683 1.335,4.112 H -1.369 L 0.814,2.541 Z"
             style="fill:#fff200;fill-opacity:1;fill-rule:nonzero;stroke:none"
             id="path847" />
        </g>
        <g
           id="g849"
           transform="translate(83.0538,95.5628)">
          <path
             d="M 0,0 2.158,1.573 4.309,0 3.488,2.539 5.676,4.112 H 2.98 L 2.153,6.69 1.33,4.105 -1.36,4.112 0.823,2.539 Z"
             style="fill:#fff200;fill-opacity:1;fill-rule:nonzero;stroke:none"
             id="path851" />
        </g>
        <g
           id="g853"
           transform="translate(77.053,94.0772)">
          <path
             d="m 0,0 -0.823,-2.58 -2.695,0.005 2.183,-1.572 -0.816,-2.54 2.151,1.567 2.158,-1.567 -0.821,2.54 2.19,1.572 H 0.829 Z"
             style="fill:#fff200;fill-opacity:1;fill-rule:nonzero;stroke:none"
             id="path855" />
        </g>
        <g
           id="g857"
           transform="translate(74.069,77.8421)">
          <path
             d="M 0,0 2.144,-1.58 1.329,0.961 3.518,2.532 H 0.823 L 0,5.11 -0.836,2.526 -3.527,2.532 -1.344,0.961 -2.158,-1.58 Z"
             style="fill:#fff200;fill-opacity:1;fill-rule:nonzero;stroke:none"
             id="path859" />
        </g>
        <g
           id="g861"
           transform="translate(77.8812,69.2153)">
          <path
             d="M 0,0 -0.829,2.571 -1.65,0 H -4.347 L -2.164,-1.579 -2.98,-4.112 -0.829,-2.539 1.329,-4.112 0.508,-1.579 2.697,0 Z"
             style="fill:#fff200;fill-opacity:1;fill-rule:nonzero;stroke:none"
             id="path863" />
        </g>
        <g
           id="g865"
           transform="translate(86.046,61.0463)">
          <path
             d="M 0,0 -0.823,2.571 -1.652,-0.007 -4.348,0 -2.158,-1.573 -2.974,-4.112 -0.823,-2.539 1.335,-4.112 0.514,-1.573 2.704,0 Z"
             style="fill:#fff200;fill-opacity:1;fill-rule:nonzero;stroke:none"
             id="path867" />
        </g>
        <g
           id="g869"
           transform="translate(97.1764,58.0868)">
          <path
             d="M 0,0 -0.822,2.578 -1.645,0 H -4.347 L -2.158,-1.568 -2.98,-4.112 -0.822,-2.539 1.335,-4.112 0.506,-1.568 2.704,0 Z"
             style="fill:#fff200;fill-opacity:1;fill-rule:nonzero;stroke:none"
             id="path871" />
        </g>
        <g
           id="g873"
           transform="translate(108.3072,61.0463)">
          <path
             d="M 0,0 -0.829,2.571 -1.659,-0.007 -4.342,0 -2.165,-1.573 -2.98,-4.112 -0.829,-2.539 1.329,-4.112 0.506,-1.573 2.704,0 Z"
             style="fill:#fff200;fill-opacity:1;fill-rule:nonzero;stroke:none"
             id="path875" />
        </g>
        <g
           id="g877"
           transform="translate(116.4781,69.2153)">
          <path
             d="M 0,0 -0.829,2.571 -1.65,0 h -2.692 l 2.184,-1.579 -0.829,-2.533 2.158,1.573 L 1.329,-4.112 0.506,-1.579 2.697,0 Z"
             style="fill:#fff200;fill-opacity:1;fill-rule:nonzero;stroke:none"
             id="path879" />
        </g>
        <g
           id="g881"
           transform="translate(122.1279,80.4062)">
          <path
             d="M 0,0 H -2.697 L -3.513,2.578 -4.348,0 h -2.687 l 2.187,-1.573 -0.83,-2.539 2.165,1.573 2.151,-1.573 -0.821,2.539 z"
             style="fill:#fff200;fill-opacity:1;fill-rule:nonzero;stroke:none"
             id="path883" />
        </g>
        <g
           id="g885"
           transform="translate(113.4925,87.4289)">
          <path
             d="M 0,0 2.158,1.564 4.316,0 3.493,2.539 5.683,4.104 H 2.987 L 2.158,6.687 1.337,4.097 -1.355,4.104 0.829,2.539 Z"
             style="fill:#fff200;fill-opacity:1;fill-rule:nonzero;stroke:none"
             id="path887" />
        </g>
        <g
           id="g889"
           transform="translate(107.5101,102.2521)">
          <path
             d="m 0,0 -0.814,-2.584 -2.704,0.006 2.19,-1.572 -0.816,-2.545 2.158,1.58 2.144,-1.58 -0.816,2.545 2.183,1.572 H 0.829 Z"
             style="fill:#fff200;fill-opacity:1;fill-rule:nonzero;stroke:none"
             id="path891" />
        </g>
        <g
           id="g893"
           style="fill:#c6c6c6;fill-opacity:1">
          <g
             id="g895"
             clip-path="url(#clipPath899)"
             style="fill:#c6c6c6;fill-opacity:1">
            <g
               id="g901"
               transform="translate(176.8359,71.4675)"
               style="fill:#c6c6c6;fill-opacity:1">
              <path
                 d="M 0,0 C -1.162,0 -2.16,0.168 -2.995,0.503 -3.83,0.838 -4.521,1.309 -5.069,1.915 -5.618,2.52 -6.023,3.232 -6.284,4.05 -6.546,4.869 -6.677,5.769 -6.677,6.751 V 17.38 H -3.56 V 7.045 c 0,-0.769 0.086,-1.428 0.258,-1.976 0.172,-0.548 0.418,-0.994 0.737,-1.338 0.319,-0.343 0.695,-0.597 1.129,-0.761 0.433,-0.163 0.92,-0.245 1.46,-0.245 0.54,0 1.032,0.082 1.473,0.245 0.442,0.164 0.823,0.418 1.142,0.761 0.319,0.344 0.565,0.79 0.736,1.338 0.172,0.548 0.258,1.207 0.258,1.976 V 17.38 H 6.75 V 6.751 C 6.75,5.769 6.616,4.869 6.346,4.05 6.076,3.232 5.666,2.52 5.118,1.915 4.57,1.309 3.87,0.838 3.019,0.503 2.168,0.168 1.162,0 0,0"
                 style="fill:#c6c6c6;fill-opacity:1;fill-rule:nonzero;stroke:none"
                 id="path903" />
            </g>
            <g
               id="g905"
               transform="translate(187.2441,83.9133)"
               style="fill:#c6c6c6;fill-opacity:1">
              <path
                 d="m 0,0 c 0.573,0.163 1.317,0.319 2.234,0.466 0.916,0.148 1.931,0.221 3.044,0.221 1.047,0 1.923,-0.143 2.626,-0.429 0.704,-0.287 1.265,-0.688 1.682,-1.203 0.417,-0.515 0.712,-1.138 0.884,-1.866 0.172,-0.728 0.258,-1.526 0.258,-2.393 v -7.217 H 7.757 v 6.75 c 0,0.688 -0.045,1.273 -0.135,1.756 C 7.532,-3.433 7.385,-3.04 7.18,-2.737 6.976,-2.435 6.697,-2.214 6.346,-2.074 5.994,-1.936 5.564,-1.866 5.057,-1.866 4.68,-1.866 4.288,-1.89 3.878,-1.939 3.469,-1.988 3.167,-2.029 2.97,-2.062 V -12.421 H 0 Z"
                 style="fill:#c6c6c6;fill-opacity:1;fill-rule:nonzero;stroke:none"
                 id="path907" />
            </g>
            <path
               d="m 204.452,71.492 h -2.971 V 84.33 h 2.971 z m 0.319,16.594 c 0,-0.556 -0.18,-0.998 -0.54,-1.325 -0.36,-0.328 -0.786,-0.491 -1.277,-0.491 -0.507,0 -0.941,0.163 -1.301,0.491 -0.36,0.327 -0.54,0.769 -0.54,1.325 0,0.573 0.18,1.023 0.54,1.351 0.36,0.327 0.794,0.491 1.301,0.491 0.491,0 0.917,-0.164 1.277,-0.491 0.36,-0.328 0.54,-0.778 0.54,-1.351"
               style="fill:#c6c6c6;fill-opacity:1;fill-rule:nonzero;stroke:none"
               id="path909" />
            <g
               id="g911"
               transform="translate(212.602,73.824)"
               style="fill:#c6c6c6;fill-opacity:1">
              <path
                 d="M 0,0 C 0.916,0 1.611,0.049 2.086,0.147 V 3.436 C 1.922,3.486 1.686,3.535 1.373,3.584 1.062,3.633 0.719,3.658 0.344,3.658 0.016,3.658 -0.316,3.633 -0.651,3.584 -0.987,3.535 -1.29,3.445 -1.56,3.314 -1.83,3.183 -2.046,2.999 -2.21,2.762 -2.374,2.524 -2.456,2.225 -2.456,1.866 -2.456,1.162 -2.234,0.675 -1.793,0.405 -1.351,0.135 -0.753,0 0,0 m -0.246,11.071 c 0.982,0 1.808,-0.123 2.478,-0.368 C 2.904,10.458 3.439,10.114 3.842,9.672 4.242,9.23 4.529,8.694 4.701,8.064 4.873,7.434 4.959,6.742 4.959,5.99 V -1.792 C 4.5,-1.89 3.809,-2.009 2.883,-2.148 1.959,-2.287 0.916,-2.357 -0.246,-2.357 c -0.77,0 -1.473,0.074 -2.111,0.221 -0.639,0.148 -1.183,0.385 -1.633,0.712 -0.45,0.327 -0.802,0.753 -1.055,1.276 -0.254,0.524 -0.381,1.17 -0.381,1.94 0,0.736 0.143,1.358 0.43,1.866 0.286,0.507 0.675,0.92 1.166,1.239 0.491,0.319 1.059,0.548 1.706,0.687 0.646,0.14 1.321,0.209 2.024,0.209 0.329,0 0.672,-0.021 1.032,-0.061 C 1.291,5.691 1.676,5.622 2.086,5.523 V 6.014 C 2.086,6.358 2.045,6.685 1.963,6.996 1.881,7.307 1.738,7.581 1.533,7.818 1.328,8.056 1.059,8.24 0.723,8.371 0.389,8.501 -0.033,8.567 -0.541,8.567 -1.228,8.567 -1.858,8.518 -2.431,8.42 -3.004,8.322 -3.47,8.207 -3.83,8.076 l -0.368,2.406 c 0.376,0.131 0.924,0.262 1.644,0.393 0.72,0.13 1.49,0.196 2.308,0.196"
                 style="fill:#c6c6c6;fill-opacity:1;fill-rule:nonzero;stroke:none"
                 id="path913" />
            </g>
            <g
               id="g915"
               transform="translate(226.7651,71.4919)"
               style="fill:#c6c6c6;fill-opacity:1">
              <path
                 d="m 0,0 v 17.012 h 10.924 v -2.627 h -7.83 v -4.197 h 6.971 V 7.61 H 3.094 V 2.627 h 8.42 V 0 Z"
                 style="fill:#c6c6c6;fill-opacity:1;fill-rule:nonzero;stroke:none"
                 id="path917" />
            </g>
            <g
               id="g919"
               transform="translate(250.9692,72.1545)"
               style="fill:#c6c6c6;fill-opacity:1">
              <path
                 d="m 0,0 c -0.572,-0.147 -1.317,-0.299 -2.233,-0.454 -0.917,-0.156 -1.923,-0.233 -3.02,-0.233 -1.031,0 -1.894,0.147 -2.59,0.442 -0.695,0.294 -1.252,0.703 -1.669,1.227 -0.418,0.524 -0.716,1.15 -0.896,1.878 -0.18,0.728 -0.27,1.526 -0.27,2.393 v 7.193 h 2.97 V 5.72 c 0,-1.375 0.2,-2.357 0.602,-2.946 0.401,-0.589 1.1,-0.883 2.098,-0.883 0.361,0 0.74,0.016 1.142,0.048 0.401,0.033 0.7,0.074 0.896,0.123 V 12.446 H 0 Z"
                 style="fill:#c6c6c6;fill-opacity:1;fill-rule:nonzero;stroke:none"
                 id="path921" />
            </g>
            <g
               id="g923"
               transform="translate(261.9174,81.655)"
               style="fill:#c6c6c6;fill-opacity:1">
              <path
                 d="m 0,0 c -0.245,0.082 -0.585,0.168 -1.018,0.257 -0.434,0.09 -0.937,0.136 -1.51,0.136 -0.327,0 -0.675,-0.034 -1.043,-0.099 C -3.939,0.229 -4.197,0.172 -4.345,0.123 V -10.163 H -7.314 V 2.062 c 0.572,0.212 1.288,0.413 2.147,0.601 0.859,0.188 1.813,0.283 2.86,0.283 0.197,0 0.425,-0.013 0.687,-0.037 C -1.358,2.884 -1.096,2.851 -0.834,2.811 -0.572,2.77 -0.318,2.72 -0.073,2.663 0.172,2.606 0.369,2.553 0.516,2.504 Z"
                 style="fill:#c6c6c6;fill-opacity:1;fill-rule:nonzero;stroke:none"
                 id="path925" />
            </g>
            <g
               id="g927"
               transform="translate(272.9145,78.2424)"
               style="fill:#c6c6c6;fill-opacity:1">
              <path
                 d="M 0,0 C 0,1.277 -0.273,2.287 -0.822,3.032 -1.37,3.776 -2.135,4.149 -3.117,4.149 -4.099,4.149 -4.864,3.776 -5.412,3.032 -5.961,2.287 -6.234,1.277 -6.234,0 c 0,-1.293 0.273,-2.316 0.822,-3.068 0.548,-0.753 1.313,-1.129 2.295,-1.129 0.982,0 1.747,0.376 2.295,1.129 C -0.273,-2.316 0,-1.293 0,0 M 3.044,0 C 3.044,-1.015 2.898,-1.939 2.603,-2.774 2.308,-3.608 1.891,-4.32 1.351,-4.909 0.811,-5.499 0.16,-5.957 -0.601,-6.284 c -0.761,-0.328 -1.6,-0.491 -2.516,-0.491 -0.917,0 -1.751,0.163 -2.504,0.491 -0.753,0.327 -1.399,0.785 -1.939,1.375 -0.541,0.589 -0.961,1.301 -1.264,2.135 -0.304,0.835 -0.454,1.759 -0.454,2.774 0,1.015 0.15,1.935 0.454,2.762 0.303,0.826 0.727,1.534 1.276,2.123 0.548,0.59 1.198,1.044 1.951,1.363 0.753,0.319 1.579,0.479 2.48,0.479 0.899,0 1.73,-0.16 2.491,-0.479 C 0.136,5.929 0.786,5.475 1.326,4.885 1.866,4.296 2.287,3.588 2.59,2.762 2.893,1.935 3.044,1.015 3.044,0"
                 style="fill:#c6c6c6;fill-opacity:1;fill-rule:nonzero;stroke:none"
                 id="path929" />
            </g>
            <g
               id="g931"
               transform="translate(287.3979,77.8498)"
               style="fill:#c6c6c6;fill-opacity:1">
              <path
                 d="M 0,0 C 0,1.326 -0.299,2.356 -0.895,3.093 -1.493,3.83 -2.455,4.198 -3.78,4.198 -4.059,4.198 -4.349,4.186 -4.651,4.161 -4.955,4.136 -5.253,4.083 -5.548,4.001 v -7.339 c 0.262,-0.181 0.61,-0.349 1.043,-0.504 0.434,-0.155 0.897,-0.233 1.388,-0.233 1.08,0 1.869,0.369 2.368,1.105 C -0.25,-2.234 0,-1.244 0,0 m 3.044,0.049 c 0,-0.982 -0.127,-1.882 -0.38,-2.7 C 2.41,-3.47 2.046,-4.173 1.571,-4.762 1.097,-5.352 0.503,-5.81 -0.209,-6.137 -0.92,-6.464 -1.727,-6.628 -2.627,-6.628 c -0.605,0 -1.162,0.074 -1.669,0.221 -0.507,0.147 -0.925,0.311 -1.252,0.491 v -4.983 h -2.97 V 6.063 c 0.605,0.164 1.35,0.319 2.234,0.467 0.884,0.147 1.816,0.221 2.799,0.221 1.014,0 1.923,-0.156 2.724,-0.467 C 0.041,5.973 0.725,5.527 1.289,4.946 1.854,4.365 2.287,3.662 2.59,2.835 2.893,2.009 3.044,1.08 3.044,0.049"
                 style="fill:#c6c6c6;fill-opacity:1;fill-rule:nonzero;stroke:none"
                 id="path933" />
            </g>
            <g
               id="g935"
               transform="translate(301.268,79.47)"
               style="fill:#c6c6c6;fill-opacity:1">
              <path
                 d="m 0,0 c 0,0.409 -0.058,0.798 -0.172,1.166 -0.115,0.368 -0.282,0.688 -0.504,0.958 -0.221,0.27 -0.49,0.482 -0.809,0.638 -0.32,0.155 -0.7,0.233 -1.142,0.233 -0.458,0 -0.859,-0.086 -1.203,-0.258 C -4.174,2.565 -4.464,2.34 -4.701,2.062 -4.939,1.784 -5.123,1.464 -5.254,1.105 -5.385,0.745 -5.475,0.376 -5.523,0 Z m -8.616,-1.326 c 0,1.13 0.167,2.119 0.503,2.971 0.335,0.851 0.781,1.559 1.338,2.123 0.555,0.565 1.194,0.99 1.915,1.277 0.719,0.286 1.456,0.429 2.209,0.429 1.767,0 3.145,-0.548 4.136,-1.645 C 2.475,2.733 2.97,1.096 2.97,-1.08 2.97,-1.244 2.966,-1.428 2.958,-1.632 2.949,-1.837 2.938,-2.021 2.921,-2.185 h -8.469 c 0.081,-1.031 0.445,-1.829 1.092,-2.393 0.646,-0.565 1.584,-0.847 2.811,-0.847 0.72,0 1.378,0.065 1.976,0.196 0.598,0.131 1.068,0.271 1.411,0.417 l 0.394,-2.43 C 1.972,-7.324 1.746,-7.41 1.46,-7.5 1.174,-7.589 0.847,-7.671 0.478,-7.745 0.11,-7.818 -0.287,-7.88 -0.712,-7.929 c -0.426,-0.049 -0.859,-0.074 -1.302,-0.074 -1.129,0 -2.11,0.168 -2.945,0.503 -0.835,0.336 -1.521,0.802 -2.062,1.4 -0.54,0.597 -0.941,1.301 -1.203,2.111 -0.261,0.81 -0.392,1.697 -0.392,2.663"
                 style="fill:#c6c6c6;fill-opacity:1;fill-rule:nonzero;stroke:none"
                 id="path937" />
            </g>
            <g
               id="g939"
               transform="translate(310.5229,88.0862)"
               style="fill:#c6c6c6;fill-opacity:1">
              <path
                 d="m 0,0 c 0,-0.556 -0.181,-0.998 -0.54,-1.325 -0.36,-0.328 -0.785,-0.491 -1.276,-0.491 -0.508,0 -0.942,0.163 -1.301,0.491 -0.36,0.327 -0.54,0.769 -0.54,1.325 0,0.573 0.18,1.023 0.54,1.351 0.359,0.327 0.793,0.49 1.301,0.49 0.491,0 0.916,-0.163 1.276,-0.49 C -0.181,1.023 0,0.573 0,0 m -4.935,-21.16 c -0.212,0 -0.51,0.02 -0.895,0.061 -0.385,0.041 -0.725,0.119 -1.019,0.233 l 0.393,2.43 c 0.36,-0.114 0.794,-0.171 1.301,-0.171 0.687,0 1.17,0.2 1.448,0.601 0.278,0.402 0.418,1.003 0.418,1.804 v 12.446 h 2.97 V -16.25 c 0,-1.67 -0.397,-2.905 -1.191,-3.708 -0.794,-0.801 -1.935,-1.202 -3.425,-1.202"
                 style="fill:#c6c6c6;fill-opacity:1;fill-rule:nonzero;stroke:none"
                 id="path941" />
            </g>
            <g
               id="g943"
               transform="translate(317.0522,73.9221)"
               style="fill:#c6c6c6;fill-opacity:1">
              <path
                 d="m 0,0 c 0.785,0 1.357,0.094 1.718,0.282 0.36,0.188 0.54,0.512 0.54,0.97 0,0.425 -0.193,0.777 -0.577,1.056 C 1.296,2.585 0.662,2.888 -0.222,3.216 -0.762,3.412 -1.257,3.621 -1.706,3.842 -2.157,4.063 -2.545,4.32 -2.873,4.615 -3.2,4.91 -3.458,5.266 -3.645,5.683 -3.834,6.1 -3.928,6.611 -3.928,7.217 c 0,1.178 0.433,2.107 1.301,2.786 0.867,0.679 2.045,1.019 3.535,1.019 0.752,0 1.473,-0.07 2.16,-0.208 0.688,-0.14 1.203,-0.275 1.546,-0.406 L 4.074,8.003 C 3.747,8.15 3.33,8.285 2.822,8.408 2.315,8.531 1.726,8.592 1.055,8.592 0.449,8.592 -0.041,8.489 -0.418,8.285 -0.794,8.08 -0.982,7.765 -0.982,7.34 c 0,-0.213 0.037,-0.401 0.11,-0.565 0.074,-0.164 0.2,-0.315 0.381,-0.454 C -0.311,6.182 -0.074,6.043 0.221,5.904 0.515,5.765 0.875,5.622 1.301,5.474 2.004,5.212 2.602,4.955 3.093,4.701 3.584,4.447 3.988,4.161 4.308,3.842 4.627,3.523 4.86,3.158 5.008,2.749 5.154,2.34 5.229,1.849 5.229,1.276 5.229,0.049 4.774,-0.88 3.866,-1.51 2.958,-2.14 1.66,-2.455 -0.025,-2.455 c -1.129,0 -2.038,0.094 -2.725,0.283 -0.688,0.188 -1.17,0.339 -1.448,0.454 l 0.515,2.479 C -3.241,0.581 -2.713,0.409 -2.1,0.246 -1.485,0.081 -0.786,0 0,0"
                 style="fill:#c6c6c6;fill-opacity:1;fill-rule:nonzero;stroke:none"
                 id="path945" />
            </g>
            <g
               id="g947"
               transform="translate(327.8774,79.323)"
               style="fill:#c6c6c6;fill-opacity:1">
              <path
                 d="m 0,0 c 0.376,0.393 0.777,0.814 1.203,1.264 0.425,0.45 0.843,0.9 1.252,1.35 0.409,0.45 0.798,0.884 1.166,1.301 0.368,0.418 0.683,0.781 0.945,1.092 h 3.51 C 7.258,4.091 6.395,3.142 5.486,2.16 4.578,1.178 3.666,0.221 2.75,-0.712 c 0.49,-0.41 1.006,-0.905 1.546,-1.485 0.54,-0.581 1.063,-1.199 1.571,-1.854 0.507,-0.655 0.982,-1.309 1.424,-1.964 0.441,-0.654 0.81,-1.26 1.104,-1.816 H 4.959 C 4.664,-7.324 4.324,-6.792 3.94,-6.235 3.556,-5.679 3.143,-5.139 2.7,-4.615 2.259,-4.092 1.809,-3.597 1.351,-3.13 0.892,-2.664 0.442,-2.267 0,-1.939 V -7.831 H -2.97 V 8.69 L 0,9.181 Z"
                 style="fill:#c6c6c6;fill-opacity:1;fill-rule:nonzero;stroke:none"
                 id="path949" />
            </g>
            <g
               id="g951"
               transform="translate(342.8032,73.824)"
               style="fill:#c6c6c6;fill-opacity:1">
              <path
                 d="M 0,0 C 0.916,0 1.611,0.049 2.086,0.147 V 3.436 C 1.923,3.486 1.686,3.535 1.374,3.584 1.064,3.633 0.72,3.658 0.344,3.658 0.016,3.658 -0.315,3.633 -0.65,3.584 -0.986,3.535 -1.289,3.445 -1.559,3.314 -1.829,3.183 -2.046,2.999 -2.21,2.762 -2.373,2.524 -2.455,2.225 -2.455,1.866 -2.455,1.162 -2.234,0.675 -1.792,0.405 -1.351,0.135 -0.753,0 0,0 m -0.246,11.071 c 0.982,0 1.808,-0.123 2.479,-0.368 C 2.904,10.458 3.44,10.114 3.842,9.672 4.242,9.23 4.529,8.694 4.701,8.064 4.873,7.434 4.959,6.742 4.959,5.99 V -1.792 C 4.5,-1.89 3.809,-2.009 2.884,-2.148 1.959,-2.287 0.916,-2.357 -0.246,-2.357 c -0.769,0 -1.473,0.074 -2.111,0.221 -0.638,0.148 -1.182,0.385 -1.632,0.712 -0.45,0.327 -0.802,0.753 -1.056,1.276 -0.254,0.524 -0.381,1.17 -0.381,1.94 0,0.736 0.144,1.358 0.43,1.866 0.286,0.507 0.676,0.92 1.166,1.239 0.491,0.319 1.06,0.548 1.706,0.687 0.646,0.14 1.322,0.209 2.025,0.209 0.328,0 0.671,-0.021 1.032,-0.061 C 1.292,5.691 1.677,5.622 2.086,5.523 V 6.014 C 2.086,6.358 2.045,6.685 1.964,6.996 1.882,7.307 1.738,7.581 1.534,7.818 1.329,8.056 1.06,8.24 0.724,8.371 0.389,8.501 -0.033,8.567 -0.54,8.567 -1.228,8.567 -1.857,8.518 -2.431,8.42 -3.004,8.322 -3.47,8.207 -3.83,8.076 l -0.368,2.406 c 0.377,0.131 0.925,0.262 1.645,0.393 0.72,0.13 1.489,0.196 2.307,0.196"
                 style="fill:#c6c6c6;fill-opacity:1;fill-rule:nonzero;stroke:none"
                 id="path953" />
            </g>
          </g>
        </g>
      </g>
    </g>
  </g>
</svg>
