<?xml version="1.0" encoding="utf-8"?>
<!-- Generator: Adobe Illustrator 16.0.0, SVG Export Plug-In . SVG Version: 6.00 Build 0)  -->
<!DOCTYPE svg PUBLIC "-//W3C//DTD SVG 1.1//EN" "http://www.w3.org/Graphics/SVG/1.1/DTD/svg11.dtd">
<svg version="1.1" id="Warstwa_1" xmlns="http://www.w3.org/2000/svg" xmlns:xlink="http://www.w3.org/1999/xlink" x="0px" y="0px"
	 width="65px" height="65px" viewBox="0 0 65 65" enable-background="new 0 0 65 65" xml:space="preserve">
<g>
	<g>
		<path fill="#FFFFFF" d="M28.947,25.934h-5.782v-9.143h5.782V25.934z M25.48,23.648h1.155v-4.572H25.48V23.648z"/>
		<path fill="#FFFFFF" d="M41.666,25.934h-5.779v-9.143h5.779V25.934z M38.195,23.648h1.158v-4.572h-1.158V23.648z"/>
		<polygon fill="#FFFFFF" points="50.917,48.791 13.917,48.791 13.917,20.22 20.855,20.22 20.855,22.506 16.229,22.506 
			16.229,46.505 48.604,46.505 48.604,22.506 43.979,22.506 43.979,20.22 50.917,20.22 		"/>
		<rect x="31.259" y="20.22" fill="#FFFFFF" width="2.312" height="2.287"/>
	</g>
	<g>
		<rect x="30.998" y="28.795" fill="#FFFFFF" width="2.311" height="2.285"/>
		<rect x="34.992" y="28.795" fill="#FFFFFF" width="2.313" height="2.285"/>
		<rect x="38.986" y="28.795" fill="#FFFFFF" width="2.313" height="2.285"/>
		<rect x="42.982" y="28.795" fill="#FFFFFF" width="2.313" height="2.285"/>
		<rect x="27.002" y="28.795" fill="#FFFFFF" width="2.312" height="2.285"/>
	</g>
	<g>
		<rect x="30.998" y="33.016" fill="#FFFFFF" width="2.311" height="2.283"/>
		<rect x="34.992" y="33.016" fill="#FFFFFF" width="2.313" height="2.283"/>
		<rect x="38.986" y="33.016" fill="#FFFFFF" width="2.313" height="2.283"/>
		<rect x="42.982" y="33.016" fill="#FFFFFF" width="2.313" height="2.283"/>
		<rect x="27.002" y="33.016" fill="#FFFFFF" width="2.312" height="2.283"/>
		<rect x="23.007" y="33.016" fill="#FFFFFF" width="2.311" height="2.283"/>
		<rect x="19.012" y="33.016" fill="#FFFFFF" width="2.312" height="2.283"/>
	</g>
	<g>
		<rect x="30.998" y="37.234" fill="#FFFFFF" width="2.311" height="2.285"/>
		<rect x="34.992" y="37.234" fill="#FFFFFF" width="2.313" height="2.285"/>
		<rect x="38.986" y="37.234" fill="#FFFFFF" width="2.313" height="2.285"/>
		<rect x="42.982" y="37.234" fill="#FFFFFF" width="2.313" height="2.285"/>
		<rect x="27.001" y="37.234" fill="#FFFFFF" width="2.312" height="2.285"/>
		<rect x="23.007" y="37.234" fill="#FFFFFF" width="2.311" height="2.285"/>
		<rect x="19.012" y="37.234" fill="#FFFFFF" width="2.311" height="2.285"/>
	</g>
	<g>
		<rect x="30.998" y="41.455" fill="#FFFFFF" width="2.311" height="2.284"/>
		<rect x="27.002" y="41.455" fill="#FFFFFF" width="2.312" height="2.284"/>
		<rect x="23.007" y="41.455" fill="#FFFFFF" width="2.311" height="2.284"/>
		<rect x="19.012" y="41.455" fill="#FFFFFF" width="2.312" height="2.284"/>
	</g>
</g>
</svg>
