<?xml version="1.0" encoding="utf-8"?>
<!-- Generator: Adobe Illustrator 16.0.0, SVG Export Plug-In . SVG Version: 6.00 Build 0)  -->
<!DOCTYPE svg PUBLIC "-//W3C//DTD SVG 1.1//EN" "http://www.w3.org/Graphics/SVG/1.1/DTD/svg11.dtd">
<svg version="1.1" id="Warstwa_1" xmlns="http://www.w3.org/2000/svg" xmlns:xlink="http://www.w3.org/1999/xlink" x="0px" y="0px"
	 width="65px" height="65px" viewBox="0 0 65 65" enable-background="new 0 0 65 65" xml:space="preserve">
<g>
	<g>
		<path fill-rule="evenodd" clip-rule="evenodd" fill="#FFFFFF" d="M32.459,50.683l-0.063,0.064L15.827,25.004l0.033-0.033
			c0.923,0.436,1.746-0.045,1.904-0.977L32.459,50.683L32.459,50.683z M32.302,14.381l0.184-0.051l-14.721,9.664
			c-0.005-0.991-0.974-1.585-1.895-1.208l-0.028-0.028L32.302,14.381L32.302,14.381z"/>
		<path fill="#FFFFFF" d="M25.646,24.727c0.491,1.986,1.114,2.853,3.195,3.764c2.082,0.91,3.07,1.902,3.886,1.902
			c0.817,0,1.743-0.87,3.823-1.779c2.081-0.91,1.527-1.188,2.017-3.173l-5.84,2.838L25.646,24.727z M42.78,19.542l-8.799-4.928
			c-0.689-0.386-1.817-0.386-2.507,0l-8.801,4.928c-0.691,0.386-0.691,1.018,0,1.405l8.801,4.927c0.689,0.387,1.817,0.387,2.507,0
			l5.688-3.184l-6.168-1.446c-0.239,0.058-0.5,0.091-0.774,0.091c-1.11,0-2.013-0.536-2.013-1.197c0-0.66,0.903-1.197,2.013-1.197
			c0.863,0,1.598,0.324,1.883,0.779l6.535,2.143l1.635-0.916C43.472,20.56,43.472,19.928,42.78,19.542z M40.093,28.882
			c-0.069,0.407,1.356,1.075,1.492-0.114c0.612-5.361-0.439-6.905-0.439-6.905l-1.476,0.827
			C39.67,22.689,40.92,23.878,40.093,28.882z"/>
		<path fill-rule="evenodd" clip-rule="evenodd" fill="#FFFFFF" d="M32.385,50.683l14.689-11.515
			c0.156,0.932,0.979,1.412,1.903,0.979l0.032,0.031L32.449,50.747L32.385,50.683L32.385,50.683z M40.992,21.606l8.003,16.325
			l-0.028,0.029c-0.922-0.378-1.889,0.219-1.893,1.207l-6.147-17.497L40.992,21.606L40.992,21.606z"/>
		<path fill-rule="evenodd" clip-rule="evenodd" fill="#FFFFFF" d="M32.485,14.331l0.136-0.01l16.389,8.57l-0.033,0.033
			c-0.925-0.437-1.746,0.045-1.903,0.976l-14.689-9.569L32.485,14.331z M32.422,50.747l-0.064-0.064L47.073,23.9
			c0.003,0.991,0.971,1.584,1.893,1.208l0.027,0.029L32.422,50.747L32.422,50.747z"/>
		<path fill-rule="evenodd" clip-rule="evenodd" fill="#FFFFFF" d="M32.459,50.683l-0.063,0.064L15.835,40.179l0.033-0.031
			c0.923,0.433,1.745-0.048,1.904-0.979L32.459,50.683L32.459,50.683z M25.677,24.735l0.064,0.064l-7.969,14.369
			c-0.004-0.988-0.973-1.585-1.895-1.207l-0.027-0.029L25.677,24.735L25.677,24.735z"/>
	</g>
	<g>
		<path fill="#FFFFFF" d="M31.285,33.465v7.525c-1.396-0.88-2.794-1.75-4.191-2.623l0.001-7.28L31.285,33.465z"/>
		<path fill-rule="evenodd" clip-rule="evenodd" fill="#FFFFFF" d="M33.215,33.604v7.526c-0.465,0.313-1.018,0.312-1.479,0v-7.526
			C31.989,33.877,32.948,33.867,33.215,33.604z"/>
		<polygon fill="#FFFFFF" points="37.845,38.358 37.845,31.089 33.652,33.465 33.654,40.99 		"/>
		<polygon fill-rule="evenodd" clip-rule="evenodd" fill="#FFFFFF" points="30.405,31.584 32.187,33.234 30.405,30.101 		"/>
		<polygon fill-rule="evenodd" clip-rule="evenodd" fill="#FFFFFF" points="28.494,31.447 28.99,31.734 31.748,33.299 
			28.494,30.627 		"/>
		<polygon fill-rule="evenodd" clip-rule="evenodd" fill="#FFFFFF" points="34.603,31.584 32.819,33.234 34.603,30.101 		"/>
		<polygon fill-rule="evenodd" clip-rule="evenodd" fill="#FFFFFF" points="36.512,31.447 36.016,31.734 33.259,33.299 
			36.512,30.627 		"/>
	</g>
</g>
</svg>
